HIERARCHY
ROOT joint_Root
{
	OFFSET 0.0 0.0 0.0
	CHANNELS 6 Xposition Yposition Zposition Zrotation Xrotation Yrotation 
	JOINT Hips
	{
		OFFSET -17.1583 93.1646 452.98
		CHANNELS 6 Xposition Yposition Zposition Zrotation Xrotation Yrotation 
		JOINT Spine
		{
			OFFSET 15.7357 0.0 0.0
			CHANNELS 6 Xposition Yposition Zposition Zrotation Xrotation Yrotation 
			JOINT Chest
			{
				OFFSET 8.98455 -0.406207 0.0
				CHANNELS 6 Xposition Yposition Zposition Zrotation Xrotation Yrotation 
				JOINT Neck
				{
					OFFSET 16.3773 0.0 0.0
					CHANNELS 6 Xposition Yposition Zposition Zrotation Xrotation Yrotation 
					JOINT Head
					{
						OFFSET 6.45672 0.0 0.0
						CHANNELS 6 Xposition Yposition Zposition Zrotation Xrotation Yrotation 
						End Site
						{
							OFFSET 0.0 0.0 0.0
						}
					}
				}
				JOINT Shoulder_L
				{
					OFFSET 12.9942 -0.242716 4.98039
					CHANNELS 6 Xposition Yposition Zposition Zrotation Xrotation Yrotation 
					JOINT UpperArm_L
					{
						OFFSET 5.34809 0.0 0.0
						CHANNELS 6 Xposition Yposition Zposition Zrotation Xrotation Yrotation 
						JOINT LowerArm_L
						{
							OFFSET 24.3286 1.87007e-05 0.0
							CHANNELS 6 Xposition Yposition Zposition Zrotation Xrotation Yrotation 
							JOINT Hand_L
							{
								OFFSET 22.2916 0.0 0.0
								CHANNELS 6 Xposition Yposition Zposition Zrotation Xrotation Yrotation 
								End Site
								{
									OFFSET 0.0 0.0 0.0
								}
							}
						}
					}
				}
				JOINT Shoulder_R
				{
					OFFSET 12.9945 -0.242716 -4.98039
					CHANNELS 6 Xposition Yposition Zposition Zrotation Xrotation Yrotation 
					JOINT UpperArm_R
					{
						OFFSET -5.34813 0.0 0.0
						CHANNELS 6 Xposition Yposition Zposition Zrotation Xrotation Yrotation 
						JOINT LowerArm_R
						{
							OFFSET -24.3289 0.000322201 0.0
							CHANNELS 6 Xposition Yposition Zposition Zrotation Xrotation Yrotation 
							JOINT Hand_R
							{
								OFFSET -22.2915 -0.000108084 0.0
								CHANNELS 6 Xposition Yposition Zposition Zrotation Xrotation Yrotation 
								End Site
								{
									OFFSET 0.0 0.0 0.0
								}
							}
						}
					}
				}
			}
		}
		JOINT UpperLeg_L
		{
			OFFSET -2.19248 -6.46944 0.0
			CHANNELS 6 Xposition Yposition Zposition Zrotation Xrotation Yrotation 
			JOINT LowerLeg_L
			{
				OFFSET 39.0811 0.0 -1.23785e-05
				CHANNELS 6 Xposition Yposition Zposition Zrotation Xrotation Yrotation 
				JOINT Foot_L
				{
					OFFSET 40.9854 0.0 -1.26872e-05
					CHANNELS 6 Xposition Yposition Zposition Zrotation Xrotation Yrotation 
					JOINT Toes_L
					{
						OFFSET 11.7543 0.0 0.0
						CHANNELS 6 Xposition Yposition Zposition Zrotation Xrotation Yrotation 
						End Site
						{
							OFFSET 0.0 0.0 0.0
						}
					}
				}
			}
		}
		JOINT UpperLeg_R
		{
			OFFSET -2.19251 6.46944 0.0
			CHANNELS 6 Xposition Yposition Zposition Zrotation Xrotation Yrotation 
			JOINT LowerLeg_R
			{
				OFFSET -39.0811 -0.00228153 -0.0401928
				CHANNELS 6 Xposition Yposition Zposition Zrotation Xrotation Yrotation 
				JOINT Foot_R
				{
					OFFSET -40.9854 0.0 0.0
					CHANNELS 6 Xposition Yposition Zposition Zrotation Xrotation Yrotation 
					JOINT Toes_R
					{
						OFFSET -11.7543 0.0 0.0
						CHANNELS 6 Xposition Yposition Zposition Zrotation Xrotation Yrotation 
						End Site
						{
							OFFSET 0.0 0.0 0.0
						}
					}
				}
			}
		}
	}
}
MOTION
Frames:	5
Frame Time:	0.0333333
0.000000 0.000000 0.000000 0.000000 0.000000 -0.000000 -1.043800 93.290400 -3.519450 87.872600 0.249689 2.110610 15.735700 0.000005 -0.000001 84.865100 87.095900 -83.426300 8.984550 -0.406207 -0.000000 -1.971460 -0.641929 2.866010 16.377300 -0.000001 -0.000001 0.193230 2.558720 -2.727600 6.456720 -0.000001 -0.000000 -2.181070 2.085090 -2.551480 12.994200 -0.242716 4.980390 -92.689000 8.532450 -72.434900 5.348090 -0.000007 -0.000001 -71.408100 20.045000 -4.787410 24.328600 0.000019 0.000005 6.536100 29.179200 -13.226100 22.291600 -0.000001 0.000005 -13.956600 5.105150 4.989840 12.994500 -0.242716 -4.980390 88.959900 3.865890 -74.928600 -5.348130 -0.000001 -0.000004 -71.496900 26.010500 -6.912270 -24.328900 0.000322 -0.000009 1.113640 7.210230 -8.817520 -22.291500 -0.000108 -0.000004 -11.472300 5.169240 3.476950 -2.192480 -6.469440 -0.000000 -172.877000 -6.403400 -2.978650 39.081100 -0.000007 -0.000012 0.013621 -0.045066 16.817900 40.985400 -0.000006 -0.000013 -1.517310 13.111700 -67.571600 11.754300 -0.000000 0.000003 -0.000162 0.170309 -9.669010 -2.192510 6.469440 -0.000001 178.482000 7.386560 178.924000 -39.081100 -0.002282 -0.040193 0.049746 -0.188832 13.809100 -40.985400 0.000008 0.000006 -3.358070 4.231000 -67.412200 -11.754300 -0.000006 -0.000006 -0.007917 0.255023 -6.216450
0.000000 0.000000 0.000000 0.000000 0.000000 -0.000000 -0.994897 93.294300 -3.214500 87.915300 0.400000 1.782760 15.735700 0.000005 -0.000001 84.744200 87.251400 -83.327600 8.984550 -0.406207 -0.000000 -2.282750 -0.627578 2.820480 16.377300 -0.000001 -0.000001 -0.853560 2.556100 -2.576430 6.456720 -0.000001 -0.000000 -2.588420 2.156880 -2.903750 12.994200 -0.242716 4.980390 -92.732600 8.696650 -72.481000 5.348090 -0.000007 -0.000001 -68.847000 17.546200 -7.563670 24.328600 0.000019 0.000005 5.463560 32.634400 -10.061400 22.291600 -0.000001 0.000005 -16.991400 5.151930 3.879180 12.994500 -0.242716 -4.980390 89.012900 3.661210 -74.900100 -5.348130 -0.000001 -0.000004 -69.466200 24.806800 -8.948090 -24.328900 0.000322 -0.000009 1.274310 10.631800 -6.886820 -22.291500 -0.000108 -0.000004 -14.035900 5.166440 3.546550 -2.192480 -6.469440 -0.000000 -172.956000 -6.557100 -3.033250 39.081100 -0.000007 -0.000012 0.013132 -0.044011 16.614300 40.985400 -0.000006 -0.000013 -1.448980 13.339400 -67.640200 11.754300 -0.000000 0.000003 -0.000420 0.174424 -9.501880 -2.192510 6.469440 -0.000001 178.369000 7.819430 178.945000 -39.081100 -0.002282 -0.040193 0.047012 -0.181246 13.549500 -40.985400 0.000008 0.000006 -3.436590 4.534310 -67.429200 -11.754300 -0.000006 -0.000006 -0.008162 0.257018 -6.134940
0.000000 0.000000 0.000000 0.000000 0.000000 -0.000000 -0.931954 93.293200 -2.863920 87.966200 0.537032 1.438060 15.735700 0.000005 -0.000001 84.994600 87.505400 -83.635300 8.984550 -0.406207 -0.000000 -2.787810 -0.560280 2.705220 16.377300 -0.000001 -0.000001 -1.807320 2.456380 -2.385260 6.456720 -0.000001 -0.000000 -2.917570 2.179650 -3.166010 12.994200 -0.242716 4.980390 -92.670000 8.509390 -72.507400 5.348090 -0.000007 -0.000001 -65.359800 13.989500 -11.102700 24.328600 0.000019 0.000005 4.120530 38.029700 -6.672730 22.291600 -0.000001 0.000005 -21.121400 5.210490 2.434130 12.994500 -0.242716 -4.980390 89.142600 3.139220 -74.714600 -5.348130 -0.000001 -0.000004 -66.352700 23.428400 -11.734200 -24.328900 0.000322 -0.000009 1.316090 15.421700 -4.947430 -22.291500 -0.000108 -0.000004 -17.182300 5.160550 3.691280 -2.192480 -6.469440 -0.000000 -173.029000 -6.873190 -3.042360 39.081100 -0.000007 -0.000012 0.010536 -0.035875 16.367300 40.985400 -0.000006 -0.000013 -1.349720 13.727600 -67.627000 11.754300 -0.000000 0.000003 -0.000516 0.175893 -9.442210 -2.192510 6.469440 -0.000001 178.242000 8.148170 178.975000 -39.081100 -0.002282 -0.040193 0.044404 -0.173512 13.317000 -40.985400 0.000008 0.000006 -3.617930 4.777260 -67.501300 -11.754300 -0.000006 -0.000006 -0.008263 0.257837 -6.101500
0.000000 0.000000 0.000000 0.000000 0.000000 -0.000000 -0.840797 93.291900 -2.389450 88.086900 0.745586 1.165070 15.735700 0.000005 -0.000001 85.147200 87.818700 -83.902200 8.984550 -0.406207 -0.000000 -3.412660 -0.490267 2.476090 16.377300 -0.000001 -0.000001 -2.732340 2.277290 -2.220170 6.456720 -0.000001 -0.000000 -3.143000 2.113830 -3.297360 12.994200 -0.242716 4.980390 -92.481600 7.911550 -72.522800 5.348090 -0.000007 -0.000001 -60.703900 10.014100 -15.038900 24.328600 0.000019 0.000005 2.656210 42.255500 -3.947330 22.291600 -0.000001 0.000005 -25.143700 5.242360 1.636420 12.994500 -0.242716 -4.980390 89.337800 2.363130 -74.340200 -5.348130 -0.000001 -0.000004 -62.085400 20.633400 -15.210100 -24.328900 0.000322 -0.000009 0.893019 19.024900 -2.742710 -22.291500 -0.000108 -0.000004 -19.852200 5.150060 3.945570 -2.192480 -6.469440 -0.000000 -173.183000 -7.112040 -2.852680 39.081100 -0.000007 -0.000012 0.007524 -0.026261 15.988900 40.985400 -0.000006 -0.000013 -1.245630 14.058000 -67.628600 11.754300 -0.000000 0.000003 -0.001203 0.185885 -9.036190 -2.192510 6.469440 -0.000001 177.997000 8.544950 179.225000 -39.081100 -0.002282 -0.040193 0.040184 -0.159803 12.985300 -40.985400 0.000008 0.000006 -3.851590 5.007800 -67.537300 -11.754300 -0.000006 -0.000006 -0.008597 0.260502 -5.992590
0.000000 0.000000 0.000000 0.000000 0.000000 -0.000000 -0.732388 93.266200 -1.825410 88.175900 1.004930 0.873131 15.735700 0.000005 -0.000001 83.181600 88.212300 -82.020300 8.984550 -0.406207 -0.000000 -4.209400 -0.545462 2.303690 16.377300 -0.000001 -0.000001 -3.485430 2.123740 -2.108460 6.456720 -0.000001 -0.000000 -3.435570 2.094620 -3.480970 12.994200 -0.242716 4.980390 -92.247100 7.138860 -72.476300 5.348090 -0.000007 -0.000001 -55.222300 4.441590 -18.702400 24.328600 0.000019 0.000005 1.688760 43.031800 -2.473810 22.291600 -0.000001 0.000005 -26.470800 5.213540 2.375790 12.994500 -0.242716 -4.980390 89.564400 1.506710 -73.871700 -5.348130 -0.000001 -0.000004 -56.895700 15.224700 -18.972300 -24.328900 0.000322 -0.000009 0.281514 20.617900 -0.802564 -22.291500 -0.000108 -0.000004 -20.459400 5.121950 4.603410 -2.192480 -6.469440 -0.000000 -173.326000 -7.044700 -2.707400 39.081100 -0.000007 -0.000012 0.006421 -0.022738 15.769900 40.985400 -0.000006 -0.000013 -1.138920 14.165300 -67.710800 11.754300 -0.000000 0.000003 -0.001464 0.189416 -8.892650 -2.192510 6.469440 -0.000001 177.775000 8.997180 179.449000 -39.081100 -0.002282 -0.040193 0.037520 -0.150672 12.783600 -40.985400 0.000008 0.000006 -4.087630 5.218170 -67.698100 -11.754300 -0.000006 -0.000006 -0.008846 0.262470 -5.912200
